# xmcd
#
# Track frame offsets: 
#        150
#        16750
#        34562
#        55812
#
# Disc length: 1164 seconds
#
# Revision: 6
# Processed by: cddbd v1.5.2PL0 Copyright (c) Steve Scherf et al.
# Submitted via: ExactAudioCopy v1.3
#
DISCID=22048a04
DTITLE=Immature - We Got It [CDM)
DYEAR=1996
DGENRE=R&B
TTITLE0=Immature feat. Smooth - We Got It (Album Version)
TTITLE1=We Got It (Flava Remix)
TTITLE2=Feel The Funk
TTITLE3=We Got It (Bottom Dollar Vocal Dub)
EXTD=
EXTT0=
EXTT1=
EXTT2=
EXTT3=
PLAYORDER=
